<svg xmlns="http://www.w3.org/2000/svg" viewBox="0 0 284.88 278.31"><defs><style>.cls-1{fill:#fff;}.cls-2{fill:#e82625;}.cls-3{fill:#2d97d1;}.cls-4{fill:#f3961f;}.cls-5{fill:#0e9046;}.cls-6{fill:#070707;}</style></defs><g id="Calque_2" data-name="Calque 2"><g id="Calque_1-2" data-name="Calque 1"><ellipse class="cls-1" cx="144.72" cy="139.51" rx="140.16" ry="138.8"/><g id="Calque_2-2" data-name="Calque 2"><g id="Calque_1-2-2" data-name="Calque 1-2"><g id="Calque_1-2-2-2" data-name="Calque 1-2-2"><path class="cls-2" d="M95.1,39.64c3.75,0,7.5.23,11.24.07,2.28-.1,3.19.68,3.15,2.91-.18,9.61-.41,19.22-.44,28.83,0,2.67-1.43,2.63-3.35,2.62-10.37-.08-20.74,0-31.1-.19-3.19-.07-4,.94-3.9,4,.17,9.49-.07,19,0,28.48,0,2.8-.58,4-3.72,3.86-8.49-.25-17-.31-25.48,0-3.65.11-5.63-.74-5.44-4.65.11-9.56.21-19.11.35-28.67a2.2,2.2,0,0,0-1.8-2.54h-.2c-5.16-1.43-10.24-.74-15.36,0-.54-1.89-2.08-.92-3.12-1q-6.55-.19-13.11,0c-2,.06-2.85-.52-2.82-2.7.12-9.74.17-19.48.08-29.22,0-2.27.86-2.77,2.84-2.58,9.81.94,19.67-.77,29.51.63,2.47.35,4.7-.47,4.58-4.31-.32-9.86-.08-19.73-.07-29.59,0-4.89,0-4.92,4.69-4.9,8.74,0,17.48.26,26.22.1C71,.73,71.66,1.89,71.5,4.71c-.22,3.86-.12,7.74-.07,11.61,0,.86-.59,2.1.92,2.46-1.16,5.95-.43,12-.46,17.95,0,1.8,1.18,2.55,3,2.51A168.25,168.25,0,0,1,95.1,39.64Z"/><path class="cls-3" d="M19.13,74.34c5.11-.79,10.2-1.48,15.36,0a2.21,2.21,0,0,1,2,2.39.48.48,0,0,1,0,.17c-.13,9.56-.23,19.11-.35,28.67-2.67,5.57-3.43,11.65-4.25,17.63a110.71,110.71,0,0,0,34,96.88,88.13,88.13,0,0,0,7.33,6.3,4.55,4.55,0,0,1,2.13,4.44c-.72,7.94-1.34,15.9-2,23.85-.21,2.66-1.11,3.18-3.54,1.73a134.89,134.89,0,0,1-40.57-37.6A137.36,137.36,0,0,1,4.16,154.37,135.29,135.29,0,0,1,7.47,105,138.83,138.83,0,0,1,19.13,74.34Z"/><rect class="cls-2" x="35.45" y="0.71" width="37.58" height="109.52"/><rect class="cls-2" x="0.08" y="38.64" width="109.41" height="34.84"/><path class="cls-4" d="M114.57,144a55.66,55.66,0,0,0,16.91-1.61c4.85-1.3,9.94-.61,14.93-.55a2.93,2.93,0,0,1,3,2.41c3.06,11.66,3.8,23.41-.27,34.91-2.23,6.29-2.37,12.71-2.39,19.09,0,3.67-.69,7.42.17,11.15.34,1.49-.81,2.77-2.19,3.61-5.3,3.23-10.59,6.5-15.89,9.73-1.44.88-2.83,1.54-4.3-.13-7.43-8.48-15.67-16.41-19-27.66-1.07-3.57-1.92-7.15-1-11a23.71,23.71,0,0,0,.2-6.35,8.47,8.47,0,0,0-7.47-8.4c-5.41-.92-10.34,1-15.31,2.55s-9.68,3.18-14.44,5c-2.78,1-3.86-.3-3.93-2.62-.17-5.62-.07-11.24-.11-16.86,0-2.22,1.86-2.55,3.27-3,12.43-3.87,25-7.34,37.68-10.22C107.85,143.28,111.33,144.44,114.57,144Z"/><path class="cls-5" d="M170.35,204.41c5.56-9.23,6.74-19.09,7.1-29.11a144.74,144.74,0,0,0-2.81-31.57c-.73-3.94-2.62-4.64-6.91-2.88-3.46,1.42-6.83,2.83-10.79,1.9a6.24,6.24,0,0,1-5.27-6.32c-.18-5.86,1.63-11.59,1.56-17.48,0-1.56,1.29-1.93,2.67-2,20.72-.29,41.45-.56,62.17-.92,3.24-.06,3.62,1.15,3.1,4.11-1.77,10-5.41,19.65-6.72,29.8-.44,3.42.25,6.72.18,10.07-.19,8.87-.47,17.73-.62,26.6a4.12,4.12,0,0,1-2.86,4.34c-13,4.49-25.8,9.66-39,13.57A7.24,7.24,0,0,1,170.35,204.41Z"/><path class="cls-3" d="M95.1,39.64A170.65,170.65,0,0,0,75,39.18c-1.83,0-3-.71-3-2.51,0-6-.7-12,.46-17.89,13.45-8.34,28.2-13.5,43.6-16.42a138.23,138.23,0,0,1,47.62-.56,149.62,149.62,0,0,1,24.13,6.1c1,.35,2.43.41,2.57,1.71.11,1.06-1.1,1.54-1.88,2.14-6.92,5.38-13.82,10.67-20.62,16.1A7.75,7.75,0,0,1,161,29.42a107.17,107.17,0,0,0-57.63,5.31c-2.21.84-4.45,1.61-6.58,2.62C96,37.73,94.33,37.93,95.1,39.64Z"/><path d="M158.25,85a15.73,15.73,0,0,0,3.47-1.16c.71-.47,3.19-.86.53-2.56-.76-.49-.54-2.83,1.16-3.73,2.77-1.48,2.88-3.57,1.69-6.26-2.21-5,.39-9,5.91-9.31.24,0,.63-.11.71,0,2.91,3.92,4.64,1.22,6.86-.93a2.88,2.88,0,0,1,4.07-.12h0a3,3,0,0,1,.5.62c.29.4.59,1.08.93,1.12A19.34,19.34,0,0,1,197.42,70c.79.94,1.55-.21,2.27-.54,5.75-2.58,9.28-2.79,12.54,2.38A12.9,12.9,0,0,1,214,80.89c-1,4.67-2.18,9.47-5.32,13.38-.66.82-1.23,2.1-.65,2.76,2.18,2.51.65,6.43,3.54,8.63,1,.75.9,2,.25,3.06a2.6,2.6,0,0,1-3.12,1.38c-7-3-14.23-.75-21.33-1.36-5.34-.46-10.06,2.57-15.26,3.08a20.93,20.93,0,0,0-4,.69c-1.38.41-2.38.39-2.9-1.17-.44-1.31-.88-2.4.37-3.73,3-3.15,2.72-4.93-.47-8-1.42-1.36-2.36-3.14-4.54-3.72-1.2-.32-2.28-1.94-1.36-3C161.82,90,159.86,87.73,158.25,85Zm24.39-17.85c-.27-.82-.35-1.18-.5-1.5-.5-1,.28-2.81-1.37-3.12s-1.69,1.21-2.2,2.36c-.75,1.7-5,2-6.25.36-1.74-2.32-3.15-.32-4.54.12a2.47,2.47,0,0,0-1.88,3v0h0a3.14,3.14,0,0,0,.25.64c1,2.17,1.87,4.25,1.39,6.78-.32,1.69-3.87,3-.69,5.17-.24.29-.49.56-.71.86-1,1.41-1.84,3-3.42,3.9-.86.49-1.31.93-.61,2a4,4,0,0,1-.28,4.85c-1.1,1.56-.38,2.3,1.14,2.53,4.12.62,5,4.12,6.22,7.14a5.22,5.22,0,0,1-1.32,6.18c-.49.46-1.41.9-.89,1.79s1.3.6,2,.46c1.22-.24,2.42-.61,3.65-.77,5.38-.7,10.27-3.49,16-2.81,6.17.73,12.52-1.61,18.7.85.75.3,3,.38,1.75-1.36-1.67-2.29-1-5.07-2.4-7.26s-1-4.28.47-6.24c2.64-3.59,3.5-7.93,4.87-12,.89-2.64-1-5.37-1.43-8.14-.44-3.23-5.53-4.68-8.67-2.34-3.92,2.91-6.06,1.22-8.47-1.58a7.63,7.63,0,0,0-2-1.71c-2.67-1.75-5.52-3.47-8.83-.16Z"/><path class="cls-6" d="M147.4,105.73a16.71,16.71,0,0,1-2.61,8.53c-2.94,4.84-5.21,9.75-1.36,15.22a4.31,4.31,0,0,1,.76,2.08c.32,4,.74,4.75-3.91,3.9a75.68,75.68,0,0,0-21.61-1c-5,.51-9.74,2.78-14.92,3-5,.19-5.72-.58-4.46-5.3,1.67-6.25,1.67-6.24-4-9.38a14.25,14.25,0,0,0-1.86-1.23c-2.58-1-2.92-2.43-.86-4.26,1.59-1.41,1.79-2.82.55-4.55s-1.25-2.63,1.34-2.54,3.36-1.69,1.88-3.6c-1.33-1.71-.57-2.7.67-3.25,3.08-1.37,2.63-3.58,1.6-5.84-1.75-3.85-1.21-6.13,2.16-8.71,1.38-1.06,2.76-1.45,4-.19,2,2,3.58,1.61,5.48-.06,1.73-1.52,3.59-2.9,5.74-.37.36.42,1.42.36,2.15.35,3.31-.06,6,.81,8,3.81s4.4,3.86,8,2c5-2.53,11.42,1.11,12.49,6.64C146.87,102.5,147.12,104.09,147.4,105.73Zm-5.16,27.77c-.19-1.16,0-2.32-.54-3-4.3-6.24-1.82-11.83,1.5-17.36a15,15,0,0,0,1.84-9.41c-.59-6.8-4.94-9.78-11.2-7.11-2.9,1.24-5.62.84-7.2-1-3.11-3.6-6.28-5.53-11.29-5.73-2-.08-3.43-.48-4.94.84s-3,1.61-4.69.41c-1.9-1.32-3.72-1.27-5.3.6s-1.14,3.36.2,5c1.67,2.07.56,4.72,1.31,7.07.43,1.35-1.49,1.07-2.55,1.22-.82.12-.23.7-.17,1.13.34,2.5-.34,4.67-2.57,6-.78.47-1.22.66-.69,1.58.76,1.33.18,2.4-.79,3.34-2,2-1.06,3.12,1.08,4,1,.42,2,.9,3,1.39,3.24,1.56,4.23,3.89,3.14,7.33-2,6.49-2,6.5,5,5.36a19.56,19.56,0,0,0,4.36-.92c4.25-1.87,8.62-2,13.16-1.66,5.71.41,11.43.58,17.37.88Z"/><path d="M81.92,248.8l1.39.78-.69,4.11c-.1.53-.22,1.08-.32,1.62h0c.41-.37.8-.77,1.21-1.13l3.11-2.75,1.39.78-3.91,7-1.1-.63,1.79-3.2c.36-.65,1-1.52,1.4-2.14h0l-1.47,1.31-2.9,2.51-.73-.41.62-3.78.36-1.93h0c-.3.68-.73,1.67-1.09,2.31l-1.79,3.2L78,255.83Z"/><path d="M88.75,254.8l1.25.62-2.69,5.38-1.25-.62Zm.68-1.73a.79.79,0,0,1,1.06-.37h.07a.77.77,0,0,1,.27,1.08h0a.8.8,0,0,1-1.11.21.79.79,0,0,1-.29-1Z"/><path d="M91.56,256.18l1,.47-.24.79h0a2.71,2.71,0,0,1,2.18-.07c1.16.53,1.31,1.55.68,2.94L93.7,263.8l-1.27-.58L93.91,260c.41-.9.31-1.36-.28-1.62a1.83,1.83,0,0,0-1.55.12l-1.74,3.83-1.3-.55Z"/><path d="M97.74,258.9l1.29.53L96.76,265l-1.29-.53Zm.55-1.78a.87.87,0,0,1,1.07-.58h0a.87.87,0,0,1,.57,1.09.88.88,0,0,1-1.1.57h-.06a.83.83,0,0,1-.52-1v0Z"/><path d="M98.25,264.87l.92-.62a2.64,2.64,0,0,0,1.31,1.2c.61.22,1,0,1.15-.34s-.35-.91-.86-1.36-1.31-1.28-1-2.23a1.89,1.89,0,0,1,2.48-1h0l.18.08A3.24,3.24,0,0,1,104,262l-.9.59a2.07,2.07,0,0,0-1-.94c-.56-.21-.93,0-1.06.32s.34.82.86,1.27,1.36,1.25,1,2.3-1.41,1.47-2.82.95A3.71,3.71,0,0,1,98.25,264.87Z"/><path d="M104.26,265.61l.9-2.72-.81-.27.33-1,.9.23.67-1.51,1.1.36-.52,1.56,1.44.48-.35,1.07-1.44-.48-.9,2.72c-.22.67-.07,1.09.47,1.27a1.69,1.69,0,0,0,.63.06l-.1,1.06a4.62,4.62,0,0,1-1.23-.17C104,267.8,103.85,266.85,104.26,265.61Z"/><path d="M108,265.8a2.9,2.9,0,0,1,3.39-2.31h.12c1.55.44,2,1.81,1.58,3.43a3.86,3.86,0,0,1-.25.64l-3.63-1a1.73,1.73,0,0,0,1.21,2.1h0a2.39,2.39,0,0,0,1.45,0l.22,1a3.72,3.72,0,0,1-2.09.06,2.91,2.91,0,0,1-2.11-3.53A.54.54,0,0,0,108,265.8Zm4,.54c.26-.89,0-1.54-.76-1.77a1.49,1.49,0,0,0-1.78,1Zm-1.68-6,1.18-.64,1.13,2.55-.86.48Z"/><path d="M115.15,264.73l1.11.27-.15,1.07h0a2,2,0,0,1,1.94-.79,1.24,1.24,0,0,1,.63.28l-.52,1.13a2,2,0,0,0-.57-.24,1.62,1.62,0,0,0-1.66.88l-.87,3.57-1.36-.33Z"/><path d="M118.41,268.57a2.92,2.92,0,0,1,3.21-2.58h.11c1.58.32,2.18,1.64,1.85,3.29a5.46,5.46,0,0,1-.19.66l-3.71-.74a1.68,1.68,0,0,0,1.29,2h0a2.62,2.62,0,0,0,1.44-.16l.29.95a3.79,3.79,0,0,1-2.13.24,2.89,2.89,0,0,1-2.34-3.35A.85.85,0,0,0,118.41,268.57Zm4,.22c.18-.91-.11-1.54-.9-1.7a1.5,1.5,0,0,0-1.69,1.18Z"/><path d="M127,270.18c.25-1.95,1.62-3,2.91-2.81a2.2,2.2,0,0,1,1.46.86l.07-1,.28-2.16,1.38.18-1.1,8.59-1.18-.11v-.66h0a2.48,2.48,0,0,1-1.78.57C127.54,273.43,126.74,272.15,127,270.18Zm3.82,1.82.37-2.78a1.65,1.65,0,0,0-1.14-.65c-.75-.1-1.47.54-1.63,1.79s.23,2.05,1.08,2.16a1.6,1.6,0,0,0,1.32-.52Z"/><path d="M133.86,271a2.91,2.91,0,0,1,2.89-2.93h.11c1.6.13,2.36,1.37,2.22,3a2.62,2.62,0,0,1-.12.68l-3.77-.3a1.71,1.71,0,0,0,1.6,1.81h0a2.57,2.57,0,0,0,1.41-.32l.4.91a3.64,3.64,0,0,1-2.09.49,2.9,2.9,0,0,1-2.7-3.07h0A1.08,1.08,0,0,1,133.86,271Zm4-.26c.07-.92-.29-1.52-1.1-1.58a1.48,1.48,0,0,0-1.54,1.37Z"/><path d="M142.89,273.06l.18-7.11h1.4l-.18,7.18c0,.35.14.47.29.48h.22l.15,1.06a2.32,2.32,0,0,1-.74.1C143.21,274.8,142.86,274.11,142.89,273.06Z"/><path d="M146,273.08c0-1.29,1-2,3.48-2.27,0-.65-.29-1.18-1.1-1.17a3.36,3.36,0,0,0-1.67.61l-.52-.94a4.49,4.49,0,0,1,2.44-.82c1.49,0,2.23.9,2.25,2.58v3.57h-1.15l-.11-.67h0a2.89,2.89,0,0,1-1.84.84,1.69,1.69,0,0,1-1.78-1.57Zm3.51,0v-1.35c-1.61.22-2.15.66-2.14,1.27s.37.76.87.76a2,2,0,0,0,1.27-.72Z"/><path d="M154.83,273.45l.74-1a3.17,3.17,0,0,0,2.13.75c.89-.07,1.35-.52,1.3-1.14s-.58-.83-1.32-1.08l-1.12-.39a2.33,2.33,0,0,1-1.77-2,2.42,2.42,0,0,1,2.38-2.46h.09a3.46,3.46,0,0,1,2.52.83l-.65,1a2.47,2.47,0,0,0-1.77-.55c-.75.06-1.21.45-1.16,1s.67.81,1.35,1l1.1.37a2.21,2.21,0,0,1,1.77,2c.1,1.3-.88,2.46-2.65,2.6A4.24,4.24,0,0,1,154.83,273.45Z"/><path d="M161.64,272.28c-.16-1.28.8-2.08,3.19-2.65-.1-.64-.42-1.14-1.22-1a3.1,3.1,0,0,0-1.58.8l-.63-.87a4.5,4.5,0,0,1,2.32-1.09c1.48-.19,2.32.64,2.54,2.3l.45,3.54-1.14.15-.19-.65h0a2.94,2.94,0,0,1-1.73,1,1.68,1.68,0,0,1-2-1.26h0A.77.77,0,0,1,161.64,272.28Zm3.47-.44-.17-1.34c-1.58.41-2.06.9-2,1.5s.46.71,1,.65a1.84,1.84,0,0,0,1.2-.85Z"/><path d="M167.56,267.05l1.13-.2.25.78h0a2.69,2.69,0,0,1,1.76-1.29c1.26-.23,2,.53,2.23,2l.67,3.71-1.38.25-.58-3.5c-.18-1-.52-1.29-1.15-1.18s-.81.41-1.21,1l.76,4.11-1.38.25Z"/><path d="M175.26,269.64l-.62-2.84-.83.19-.23-1,.89-.26-.2-1.64,1.13-.25.36,1.6,1.48-.33.25,1.1-1.48.33.63,2.8c.15.69.5,1,1,.85a2,2,0,0,0,.58-.27l.46,1a3.83,3.83,0,0,1-1.14.48C176.24,271.66,175.55,270.91,175.26,269.64Z"/><path d="M178.64,267.89a2.91,2.91,0,0,1,1.74-3.73h.1c1.56-.41,2.68.51,3.11,2.13a3.87,3.87,0,0,1,.12.68l-3.66,1a1.7,1.7,0,0,0,2.08,1.18h0a2.6,2.6,0,0,0,1.22-.78l.69.73a3.79,3.79,0,0,1-1.81,1.15,2.9,2.9,0,0,1-3.57-2h0A1.43,1.43,0,0,0,178.64,267.89Zm.75-5.08,1.18-2.52,1.17.66-1.5,2.36Zm3,3.5c-.24-.9-.78-1.34-1.56-1.13a1.5,1.5,0,0,0-1,1.81Z"/><path d="M192.64,263.66c-.71-1.83,0-3.39,1.21-3.86a2.23,2.23,0,0,1,1.7.05l-.4-.88-.79-2,1.3-.51,3.14,8.07-1.07.42-.33-.57h0a2.49,2.49,0,0,1-1.29,1.36C194.64,266.25,193.32,265.51,192.64,263.66Zm4.23-.24-1-2.61a1.75,1.75,0,0,0-1.31,0c-.71.27-1,1.18-.57,2.35s1.19,1.69,2,1.37a1.56,1.56,0,0,0,.84-1.11Z"/><path d="M199,261.13a2.94,2.94,0,0,1,1.11-4h.06c1.47-.66,2.72.07,3.41,1.6a3.31,3.31,0,0,1,.22.65l-3.45,1.54a1.72,1.72,0,0,0,2.24.84h0a2.54,2.54,0,0,0,1.08-1l.79.61a3.82,3.82,0,0,1-1.46,1.36,2.9,2.9,0,0,1-3.84-1.36A.31.31,0,0,1,199,261.13Zm3.41-2.17c-.38-.85-1-1.19-1.72-.86A1.49,1.49,0,0,0,200,260Z"/><path d="M207.94,258.56l-3.3-6.32,1.24-.64,3.29,6.38c.16.31.35.35.48.28a.57.57,0,0,0,.18-.12l.64.86a2.25,2.25,0,0,1-.6.45C209,259.9,208.42,259.49,207.94,258.56Z"/><path d="M209,253.63a1.69,1.69,0,0,0,.14-1.84l-.53-.78.83.37a.86.86,0,0,1-.38.48.74.74,0,0,1-1-.22v-.07a.77.77,0,0,1,.2-1.07h.09c.54-.3,1.08,0,1.49.73a2.6,2.6,0,0,1-.17,2.83Z"/><path d="M210.74,249.73l1.2-.73,1.7,2.8,2.74-1.66-1.74-2.8,1.2-.73,4.16,6.85-1.2.73-1.84-3-2.7,1.61,1.85,3-1.2.73Z"/><path d="M222.85,254.43l-.4-1.05.4-.17a1.28,1.28,0,0,0,.4-1.53l-.12-.38-5.29-3.57,1.17-.8,2.51,1.86c.45.34.92.73,1.39,1.11h0c-.19-.55-.4-1.12-.58-1.66l-.93-2.94,1.11-.76,1.77,6.42c.35,1.4.31,2.45-.76,3.18A2.35,2.35,0,0,1,222.85,254.43Z"/><path d="M227.31,249.8a1.52,1.52,0,0,1-.09-1.54h0a1.16,1.16,0,0,1-1-.48,1.44,1.44,0,0,1-.15-1.29h0a2,2,0,0,1-1.58-.79,2.18,2.18,0,0,1,.44-3l.13-.09a2.51,2.51,0,0,1,.79-.42l1.7-1.28.63.84-.87.65a1.55,1.55,0,0,1,.88.6,2,2,0,0,1-.3,2.81,1.85,1.85,0,0,1-.27.19,2.42,2.42,0,0,1-.74.36.68.68,0,0,0,.11.63c.21.27.52.29,1.1-.15l.85-.64c1.14-.86,2-1,2.64-.13s.3,2.44-1.25,3.61C229.1,250.45,228,250.73,227.31,249.8Zm-.21-6.22a1,1,0,0,0-1.41.1,1,1,0,0,0,.1,1.41,1,1,0,0,0,1.21.08,1.07,1.07,0,0,0,.14-1.51h0Zm3.46,3.37c-.28-.37-.66-.26-1.2.15l-.65.49a4.38,4.38,0,0,1-.69.42,1,1,0,0,0,.11.91c.33.44,1,.34,1.74-.22s1-1.31.69-1.72Z"/><path d="M227,238.73a.81.81,0,0,1,.12-1.14h0a.8.8,0,0,1,1.12,0h0a.86.86,0,0,1-.27,1.18A.9.9,0,0,1,227,238.73Zm1.3,1.33,1.08-.88,3.8,4.67-1.08.88Z"/><path d="M230.87,235.73l-.06-2.79,1.34.07-.29,2.78Zm1.58,4.88a2.91,2.91,0,0,1-.07-4.12h0l.06-.06c1.21-1.06,2.62-.74,3.73.53a3.84,3.84,0,0,1,.41.56L233.75,240a1.71,1.71,0,0,0,2.4.13h0a2.7,2.7,0,0,0,.75-1.24l.94.35a3.66,3.66,0,0,1-1.11,1.84,2.92,2.92,0,0,1-4.1-.18Zm2.63-3.07c-.61-.7-1.29-.85-1.9-.32a1.5,1.5,0,0,0-.09,2.06Z"/><path d="M235.34,234l.82-.8.64.51h0a2.74,2.74,0,0,1,.74-2c.92-.89,1.92-.65,3,.44l2.63,2.71-1,1-2.53-2.69c-.69-.71-1.15-.78-1.62-.33a1.85,1.85,0,0,0-.45,1.48l2.93,3-1,1Z"/><path d="M242,231.65a2.91,2.91,0,0,1-.5-4.09h0l.06-.07c1.1-1.18,2.54-1,3.77.15a2.79,2.79,0,0,1,.46.51l-2.58,2.76a1.69,1.69,0,0,0,2.39-.11h0a2.63,2.63,0,0,0,.63-1.31l1,.25a3.77,3.77,0,0,1-.92,1.94,2.89,2.89,0,0,1-4.08.28h0Zm2.31-3.32c-.68-.63-1.37-.72-1.92-.12a1.51,1.51,0,0,0,.11,2.06Z"/><path d="M244.4,221.65l1.58-1.94c1.11-1.37,2.42-2,3.85-.82s1.19,2.66.11,4l-.72.88,2.28,1.86-.86,1.1Zm4.58.6c.75-.92.73-1.65,0-2.28s-1.42-.36-2.17.55l-.62.76,2.17,1.76Z"/><path d="M253.28,219.8l-3.07-2.2.82-1.14,2.92,2.09c.8.58,1.27.57,1.65,0a1.61,1.61,0,0,0,.09-1.56l-3.35-2.4.82-1.14,4.89,3.51-.67.93-.78-.43h0a2.41,2.41,0,0,1-.28,2.16C255.54,220.8,254.51,220.73,253.28,219.8Z"/><path d="M259.35,214h0l.46.45-.6.92L252,210.66l.77-1.17,1.9,1.31.82.58a2.65,2.65,0,0,1,.32-1.85c.82-1.25,2.3-1.31,3.85-.29,1.73,1.13,2.06,2.8,1.33,3.91A2.53,2.53,0,0,1,259.35,214Zm-.56-3.63c-1-.66-1.81-.72-2.31,0a1.86,1.86,0,0,0-.15,1.46l2.35,1.54a1.91,1.91,0,0,0,1.07-.73c.44-.63.18-1.53-1-2.27Z"/><path d="M261.64,208.8l-6.09-3.67.72-1.2,6.15,3.71c.3.18.48.11.56,0a.88.88,0,0,0,.09-.2l1,.4a2.1,2.1,0,0,1-.28.7C263.25,209.35,262.51,209.32,261.64,208.8Z"/><path d="M257.75,202.9a.88.88,0,0,1-.42-1.16h0a.85.85,0,0,1,1.12-.44l0,0a.88.88,0,0,1,.42,1.16v.06a.79.79,0,0,1-1,.38h0Zm1.69.78.69-1.21,5.23,3-.69,1.21Z"/><path d="M268.38,200.65l-.87-.51a2.44,2.44,0,0,1-.09,1.8c-.69,1.32-2.16,1.63-3.93.72s-2.24-2.54-1.64-3.7a2.1,2.1,0,0,1,1.41-1.12h0l-.46-.38.51-1,7.45,3.88-.64,1.24Zm-1.86-1L264,198.36a1.68,1.68,0,0,0-1,.85c-.35.67,0,1.56,1.12,2.14s2,.48,2.4-.28a1.59,1.59,0,0,0,0-1.38Z"/><path d="M267.5,196.52,264,195l.58-1.27,3.27,1.49c.9.41,1.36.31,1.62-.28a1.57,1.57,0,0,0-.21-1.55l-3.75-1.7.58-1.27,5.48,2.49-.47,1-.85-.27h0a2.44,2.44,0,0,1,.15,2.17C269.9,197,268.88,197.15,267.5,196.52Z"/><path d="M269.47,190.26a3,3,0,0,1-2-3.65h0v-.07c.59-1.5,2-1.85,3.56-1.23a3,3,0,0,1,.62.31l-1.39,3.52a1.71,1.71,0,0,0,2.18-1h0a2.57,2.57,0,0,0,.11-1.45l1-.12a3.73,3.73,0,0,1-.15,2.14,2.89,2.89,0,0,1-3.72,1.68h0Zm.94-3.93c-.86-.34-1.54-.17-1.84.59a1.5,1.5,0,0,0,.86,1.88Z"/><path d="M272.57,182.11a2.93,2.93,0,0,1-2.19-3.52h0v-.07c.49-1.53,1.87-2,3.47-1.47a3.52,3.52,0,0,1,.63.27l-1.16,3.6a1.69,1.69,0,0,0,2.12-1.11h0v-.08a2.74,2.74,0,0,0,0-1.45l1-.18a3.75,3.75,0,0,1,0,2.15,2.87,2.87,0,0,1-3.53,2h0Zm.67-4c-.88-.28-1.54-.07-1.79.71a1.52,1.52,0,0,0,1,1.82Z"/><path d="M275.51,176l-2.76-.77-.23.82-1-.28.19-.91-1.54-.6.31-1.12,1.58.44.41-1.46,1.08.3-.41,1.46,2.76.77c.68.19,1.09,0,1.24-.53a2.22,2.22,0,0,0,0-.63h1.06a4,4,0,0,1-.11,1.23C277.74,176.06,276.76,176.32,275.51,176Z"/><path d="M276.2,169.55c-1.92-.41-2.84-1.85-2.57-3.12a2.13,2.13,0,0,1,1-1.39l-1-.15-2.13-.45.29-1.37,8.46,1.8L280,166h-.66a2.55,2.55,0,0,1,.43,1.82C279.49,169.26,278.15,170,276.2,169.55Zm2.12-3.67-2.74-.58a1.7,1.7,0,0,0-.74,1.08c-.16.74.42,1.5,1.65,1.76s2.06-.07,2.24-.91a1.59,1.59,0,0,0-.41-1.35Z"/><path d="M277.64,162.8a2.92,2.92,0,0,1-2.7-3.13h0v-.08c.26-1.59,1.55-2.24,3.21-2a2.64,2.64,0,0,1,.67.17l-.6,3.73a1.72,1.72,0,0,0,1.93-1.44h0a2.5,2.5,0,0,0-.21-1.43l.94-.33a3.6,3.6,0,0,1,.32,2.12,2.9,2.9,0,0,1-3.26,2.47h0Zm.06-4c-.91-.15-1.54.17-1.67,1a1.49,1.49,0,0,0,1.25,1.64Z"/><path d="M280.33,154l-7.07-.74.14-1.39,7.14.75c.35,0,.48-.11.5-.25a.81.81,0,0,0,0-.22l1.07-.06a1.89,1.89,0,0,1,0,.75C282,153.8,281.38,154.07,280.33,154Z"/><path d="M280.64,150.88c-1.29-.09-1.88-1.19-2-3.64-.65,0-1.2.2-1.26,1a3.35,3.35,0,0,0,.48,1.71l-1,.45a4.55,4.55,0,0,1-.62-2.49c.1-1.49,1.08-2.15,2.75-2l3.56.24-.08,1.14-.67.06h0a2.86,2.86,0,0,1,.68,1.9,1.7,1.7,0,0,1-1.74,1.64h-.1Zm.25-3.5-1.35-.09c.1,1.63.48,2.19,1.09,2.23s.79-.31.82-.81a1.91,1.91,0,0,0-.61-1.33Z"/><path d="M278.72,141.94c-2.62,0-4.18-1.62-4.18-3.62a3.19,3.19,0,0,1,1-2.29l.92.75a2,2,0,0,0-.69,1.51c0,1.29,1.1,2.21,2.9,2.21s2.94-.86,2.94-2.19a2.19,2.19,0,0,0-.83-1.69l.89-.75a3.1,3.1,0,0,1,1.17,2.5C282.84,140.35,281.37,141.93,278.72,141.94Z"/><path d="M279.64,134.92a2.85,2.85,0,1,1,3-3,2.91,2.91,0,0,1-2.82,3h-.18Zm-.23-4.22c-1.2.06-2,.63-1.93,1.5s.88,1.35,2.08,1.29,2-.63,1.92-1.5-.84-1.35-2.06-1.29Z"/><path d="M280,127.8l-3.75.39-.15-1.39,3.57-.37c1-.1,1.33-.42,1.26-1.06s-.34-.84-1-1.22l-4.1.43-.15-1.39,6-.62.12,1.14-.87.2h0a2.41,2.41,0,0,1,1.23,1.8C282.3,127,281.49,127.6,280,127.8Z"/><path d="M275.64,122.18l-.21-1.4,2.94-1.41,1.72-.77h0l-1.87-.22-3.23-.46-.21-1.33,6.26,1.14.25,1.6Z"/><path d="M277.57,115.41a2.9,2.9,0,0,1-3.59-2v-.15c-.32-1.58.67-2.64,2.32-3a3.08,3.08,0,0,1,.68-.08l.75,3.71a1.69,1.69,0,0,0,1.3-2,2.46,2.46,0,0,0-.7-1.27l.77-.64a3.64,3.64,0,0,1,1,1.87,2.9,2.9,0,0,1-2.24,3.43h0Zm-1.36-3.81c-.91.18-1.38.69-1.22,1.49a1.5,1.5,0,0,0,1.74,1.1Z"/><path d="M273.28,109.64l-.24-1.11,1-.36h0a2,2,0,0,1-1.59-1.36,1.56,1.56,0,0,1,0-.68h1.25a2.15,2.15,0,0,0,0,.62c.11.46.57.94,1.54,1.07l3.57-.87.33,1.36Z"/><path d="M276,104l-2.76.77.23.82-1,.29-.31-.87-1.63.28-.31-1.12,1.58-.44-.41-1.46,1.08-.3.41,1.46,2.76-.77c.68-.19.94-.55.79-1.1a1.77,1.77,0,0,0-.3-.56l.94-.51a3.69,3.69,0,0,1,.54,1.11C277.93,102.94,277.23,103.67,276,104Z"/><path d="M274.64,100l-3.6,1.17-.43-1.33L274,98.73c.94-.31,1.21-.69,1-1.3s-.5-.75-1.2-1l-3.92,1.3-.43-1.33,5.72-1.87.35,1.09-.81.38h0a2.39,2.39,0,0,1,1.58,1.5C276.72,98.73,276,99.54,274.64,100Z"/><path d="M268.86,94.8l-.4-1.07,1-.48h0a2,2,0,0,1-1.74-1.16,1.29,1.29,0,0,1-.12-.67l1.23-.2a2.2,2.2,0,0,0,.12.61,1.65,1.65,0,0,0,1.66.88l3.44-1.29.49,1.31Z"/><path d="M270.24,89.87a2.93,2.93,0,0,1-4-1.11l0,0h0v-.1c-.63-1.48.13-2.72,1.68-3.38a2.54,2.54,0,0,1,.66-.21l1.47,3.48a1.71,1.71,0,0,0,.88-2.25h0a2.58,2.58,0,0,0-.94-1.1l.62-.78A3.54,3.54,0,0,1,272,86a2.88,2.88,0,0,1-1.45,3.8h0Zm-2.08-3.45c-.86.36-1.22,1-.9,1.7a1.53,1.53,0,0,0,1.93.74Z"/><path d="M262.09,83.73l-.73-1.41,2.84-3c.37-.39.78-.78,1.17-1.17h0c-.54.08-1.09.2-1.63.28l-4.1.5-.73-1.41L266,73.83l.59,1.15-3.26,1.68c-.66.34-1.66.73-2.35,1h0l1.95-.28,3.8-.49.38.74-2.6,2.81-1.37,1.41h0c.63-.4,1.53-1,2.18-1.33L268.64,79l.58,1.12Z"/><path d="M263.64,73c-1.11.66-2.23.09-3.7-1.88a1,1,0,0,0-.61,1.27h0a.94.94,0,0,0,.14.26,3.49,3.49,0,0,0,1.39,1.16l-.55.92a4.8,4.8,0,0,1-1.93-1.7c-.76-1.28-.34-2.38,1.11-3.24L262.56,68l.58,1-.52.43h0a2.85,2.85,0,0,1,1.64,1.18,1.67,1.67,0,0,1-.44,2.31Zm-1.78-3-1.17.69c1,1.29,1.64,1.53,2.17,1.22a.74.74,0,0,0,.31-1h0l-.13-.16a1.8,1.8,0,0,0-1.19-.8Z"/><path d="M260.27,67.22l-6,3.85-.75-1.18L259.64,66c.29-.19.31-.38.23-.51a.58.58,0,0,0-.14-.17l.79-.72a1.76,1.76,0,0,1,.5.55C261.5,66,261.15,66.65,260.27,67.22Z"/><path d="M258.53,64.64c-1.06.74-2.22.25-3.83-1.6a1,1,0,0,0-.52,1.31h0a1.32,1.32,0,0,0,.16.25,3.19,3.19,0,0,0,1.45,1l-.48,1a4.52,4.52,0,0,1-2-1.56c-.85-1.22-.51-2.35.87-3.31l2.93-2,.65.94-.49.47h0a2.75,2.75,0,0,1,1.72,1,1.67,1.67,0,0,1-.22,2.35Zm-2-2.88-1.11.77c1.09,1.21,1.75,1.41,2.25,1.06a.73.73,0,0,0,.23-1,.27.27,0,0,0-.09-.12,1.78,1.78,0,0,0-1.28-.65Z"/><path d="M253.77,60.26c-1.55,1.2-3.25,1-4-.06a2.2,2.2,0,0,1-.43-1.64l-.74.64-1.72,1.33-.86-1.1,6.84-5.3.7.91-.45.48h0a2.41,2.41,0,0,1,1.67.85C255.64,57.57,255.34,59,253.77,60.26Zm-1.43-4L250.12,58a1.82,1.82,0,0,0,.35,1.27c.46.6,1.42.65,2.41-.12s1.28-1.61.75-2.29a1.56,1.56,0,0,0-1.29-.56Z"/><path d="M245.64,57.8a.81.81,0,0,1-1.13-.09v-.06a.79.79,0,0,1,0-1.12h.06a.86.86,0,1,1,1.11,1.32h0ZM247,56.48l-.9-1.07,4.58-3.88.9,1.07Z"/><path d="M247.42,52.34a2.94,2.94,0,0,1-4.13.14h0l-.06-.06c-1.08-1.2-.77-2.61.48-3.74a2.71,2.71,0,0,1,.55-.41l2.53,2.81a1.69,1.69,0,0,0,.11-2.39h0a2.38,2.38,0,0,0-1.25-.73l.36-1a3.61,3.61,0,0,1,1.85,1.08,2.88,2.88,0,0,1-.12,4.07Zm-3.11-2.54c-.69.62-.83,1.3-.29,1.9a1.5,1.5,0,0,0,2,0Z"/><path d="M240.81,46l-3.11,3.25-1-1,3.19-3.33c1.21-1.26,1.14-2.12.44-2.79s-1.58-.72-2.79.54L234.35,46l-1-.94,3.12-3.24c1.82-1.9,3.37-1.84,4.7-.57S242.64,44.08,240.81,46Z"/><path d="M233.38,42.41l-.87-.74L233,41h0a2.84,2.84,0,0,1-2.11-.54c-1-.83-.83-1.85.16-3l2.46-2.87,1.06.91-2.33,2.73c-.64.75-.67,1.22-.18,1.64a1.91,1.91,0,0,0,1.52.31l2.7-3.18,1.06.91Z"/><path d="M227.19,39.64a.89.89,0,0,1-1.21.21.88.88,0,0,1-.21-1.21.84.84,0,0,1,1.18-.23H227a.78.78,0,0,1,.23,1.09v0h0Zm1-1.56-1.09-.87,3.74-4.72,1.1.87Z"/><path d="M226.43,36.58l-1.15-.78,1-3.09.65-1.77h0l-1.47,1.18-2.59,2-1.1-.79,5.15-3.71,1.31.94Z"/><path d="M223,30.39a2.91,2.91,0,0,1-3.95,1.15l-.05,0h0c-1.34-.9-1.39-2.35-.45-3.74a2.84,2.84,0,0,1,.43-.54l3.14,2.11a1.7,1.7,0,0,0-.5-2.35h0a2.54,2.54,0,0,0-1.39-.41l.09-1a3.67,3.67,0,0,1,2.06.6,2.89,2.89,0,0,1,.84,4h0Zm-3.65-1.74c-.52.77-.49,1.46.19,1.92a1.5,1.5,0,0,0,2-.44Z"/><path d="M215.9,29.31l-1-.6.47-1h0a2,2,0,0,1-2.08.16,1.87,1.87,0,0,1-.51-.46l.85-.92a3,3,0,0,0,.47.4,1.63,1.63,0,0,0,1.85-.33l1.92-3.13,1.19.73Z"/><path d="M215.25,22.67l-1,.46a2.57,2.57,0,0,0-1.1-1.39c-.57-.32-1-.2-1.19.16s.2,1,.64,1.48,1.09,1.48.6,2.35a1.9,1.9,0,0,1-2.6.62h0l-.17-.12a3.28,3.28,0,0,1-1.39-1.6l1-.44a2.37,2.37,0,0,0,.88,1.1c.52.29.91.18,1.1-.15s-.2-.87-.65-1.39a2.14,2.14,0,0,1-.6-2.42c.55-1,1.62-1.23,2.93-.49A3.57,3.57,0,0,1,215.25,22.67Z"/><path d="M209.3,22a2.9,2.9,0,0,1-3.77,1.61h-.11c-1.44-.73-1.66-2.16-.9-3.66a3.13,3.13,0,0,1,.36-.58l3.37,1.71a1.71,1.71,0,0,0-.81-2.24A2.44,2.44,0,0,0,206,18.6v-1a3.61,3.61,0,0,1,2.12.34,2.89,2.89,0,0,1,1.3,3.86Zm-3.82-1.26c-.42.83-.31,1.51.42,1.88a1.54,1.54,0,0,0,2-.68Z"/><path d="M204,17.73l-3,6.45-1.27-.59,3-6.52c.15-.32.06-.49-.07-.55a.52.52,0,0,0-.21-.07l.29-1a1.65,1.65,0,0,1,.72.2C204.38,16,204.44,16.8,204,17.73Z"/><path d="M200.92,16.32,198.1,22.8l-1.28-.56,2.82-6.51c.14-.32,0-.49-.09-.55l-.21-.06.26-1a1.63,1.63,0,0,1,.72.18C201.26,14.62,201.33,15.36,200.92,16.32Z"/><path d="M197.64,16.48a2.93,2.93,0,0,1-3.63,2h-.08c-1.5-.59-1.87-2-1.25-3.56a4,4,0,0,1,.31-.62l3.52,1.38a1.71,1.71,0,0,0-1-2.19h0a2.48,2.48,0,0,0-1.45-.1l-.12-1a3.64,3.64,0,0,1,2.14.14,2.89,2.89,0,0,1,1.69,3.72Zm-4-.92c-.34.86-.16,1.54.6,1.83a1.5,1.5,0,0,0,1.87-.87Z"/></g></g></g></g></g></svg>